<svg width="62" height="62" viewBox="0 0 62 62" fill="none" xmlns="http://www.w3.org/2000/svg">
<path fill-rule="evenodd" clip-rule="evenodd" d="M10.3333 12.9167C9.64819 12.9167 8.99111 13.1888 8.50664 13.6733C8.02217 14.1578 7.75 14.8148 7.75 15.5C7.75 16.1851 8.02217 16.8422 8.50664 17.3267C8.99111 17.8112 9.64819 18.0833 10.3333 18.0833H51.6667C52.3518 18.0833 53.0089 17.8112 53.4934 17.3267C53.9778 16.8422 54.25 16.1851 54.25 15.5C54.25 14.8148 53.9778 14.1578 53.4934 13.6733C53.0089 13.1888 52.3518 12.9167 51.6667 12.9167H10.3333ZM7.75 31C7.75 30.3148 8.02217 29.6578 8.50664 29.1733C8.99111 28.6888 9.64819 28.4167 10.3333 28.4167H51.6667C52.3518 28.4167 53.0089 28.6888 53.4934 29.1733C53.9778 29.6578 54.25 30.3148 54.25 31C54.25 31.6851 53.9778 32.3422 53.4934 32.8267C53.0089 33.3112 52.3518 33.5833 51.6667 33.5833H10.3333C9.64819 33.5833 8.99111 33.3112 8.50664 32.8267C8.02217 32.3422 7.75 31.6851 7.75 31ZM7.75 46.5C7.75 45.8148 8.02217 45.1578 8.50664 44.6733C8.99111 44.1888 9.64819 43.9167 10.3333 43.9167H51.6667C52.3518 43.9167 53.0089 44.1888 53.4934 44.6733C53.9778 45.1578 54.25 45.8148 54.25 46.5C54.25 47.1851 53.9778 47.8422 53.4934 48.3267C53.0089 48.8112 52.3518 49.0833 51.6667 49.0833H10.3333C9.64819 49.0833 8.99111 48.8112 8.50664 48.3267C8.02217 47.8422 7.75 47.1851 7.75 46.5Z" fill="white"/>
</svg>
